<svg width="292" height="85" viewBox="0 0 292 85" fill="none" xmlns="http://www.w3.org/2000/svg">
<path d="M30.0832 17.3739C30.1679 17.3745 30.2526 17.375 30.3398 17.3756C34.0143 17.4046 37.1092 18.5877 39.9183 20.9709C40.0258 21.056 40.1333 21.141 40.2441 21.2287C42.1712 22.8233 43.4497 25.2994 44.0402 27.7056C44.0627 27.7958 44.0852 27.8859 44.1084 27.9787C44.7775 30.9505 44.31 34.3032 42.7171 36.9004C40.2996 40.3685 37.0981 41.8141 33.1292 42.767C36.565 42.5243 39.5714 41.5913 41.9793 38.9711C42.1005 39.216 42.1005 39.216 42.0351 39.4518C41.3271 41.0236 39.9424 42.2465 38.377 42.9077C33.6645 44.6796 27.7762 44.4438 23.1737 42.3849C21.9008 41.7842 20.777 41.1012 19.7936 40.0731C19.71 39.9869 19.6263 39.9008 19.5402 39.812C19.1201 39.3555 18.8413 38.982 18.7025 38.3588C18.7598 38.4033 18.8172 38.4478 18.8763 38.4937C19.1399 38.6961 19.4058 38.8951 19.6723 39.0935C19.7513 39.1537 19.8302 39.2138 19.9115 39.2758C23.1907 41.6434 28.2572 42.5196 32.1883 41.9529C35.5961 41.3629 38.823 39.9106 41.0094 37.1343C41.2366 36.7772 41.4371 36.4164 41.6156 36.0323C41.5463 36.1093 41.4771 36.1863 41.4058 36.2657C39.1399 38.6817 35.8506 39.6581 32.6243 39.7469C30.6054 39.7737 28.6684 39.4669 26.8251 38.6037C26.6948 38.5436 26.5644 38.4834 26.4301 38.4215C24.4848 37.4483 23.1093 35.8807 22.3395 33.8282C21.6506 31.6537 21.5249 29.2038 22.4759 27.0934C23.8814 24.4527 26.3647 22.3612 29.209 21.4835C31.8749 20.7454 34.4222 20.6609 37.1299 21.2158C37.2637 21.2418 37.3975 21.2679 37.5353 21.2947C37.8047 21.3478 38.0736 21.4038 38.3423 21.4607C34.8962 19.337 31.078 18.415 27.075 19.3177C23.9104 20.0939 21.0664 21.9791 19.3223 24.7826C18.8305 25.6179 18.33 26.5165 18.0963 27.4607C17.5762 27.4607 17.0561 27.4607 16.5203 27.4607C17.4016 23.8629 19.7212 21.1497 22.8157 19.2343C25.0321 17.9011 27.5168 17.3429 30.0832 17.3739ZM25.4802 25.8301C24.0932 27.5325 23.2403 29.6497 23.4306 31.869C23.7359 33.8616 24.6421 35.359 26.2549 36.5637C28.977 38.2523 32.4894 38.551 35.5719 37.8657C37.9801 37.2514 40.2803 36.1742 41.6156 33.9506C42.7098 32.0376 43.0698 29.9209 42.5097 27.7669C42.0636 26.4168 41.3937 25.4052 40.4032 24.3995C40.3404 24.3318 40.2776 24.2641 40.2129 24.1943C39.2915 23.2904 37.7933 22.5904 36.5238 22.4403C36.2875 22.4024 36.2875 22.4024 36.0464 22.3638C32.2364 21.9944 28.1987 22.9549 25.4802 25.8301Z" fill="#FAFAFA"/>
<path d="M41.2533 46.8054C41.7359 47.426 41.8715 48.0822 41.8809 48.8551C41.8833 49.0225 41.8833 49.0225 41.8856 49.1934C41.8865 49.3126 41.8874 49.4319 41.8884 49.5548C41.8893 49.679 41.8903 49.8033 41.8913 49.9313C41.893 50.194 41.8943 50.4566 41.8953 50.7193C41.8967 50.9867 41.8991 51.2542 41.9027 51.5216C41.9079 51.9094 41.9099 52.2971 41.9111 52.6849C41.9132 52.8032 41.9153 52.9215 41.9175 53.0433C41.9149 53.888 41.7742 54.6642 41.2119 55.3223C40.391 56.0668 39.5068 56.1788 38.4536 56.2546C38.26 56.2702 38.26 56.2702 38.0626 56.286C37.79 56.3076 37.5173 56.3284 37.2446 56.3486C36.8329 56.3791 36.4214 56.412 36.01 56.4452C32.0792 56.7555 32.0792 56.7555 31.1909 56.2341C30.9693 56.0365 30.9693 56.0365 30.7969 55.8284C30.7388 55.7607 30.6807 55.693 30.6208 55.6232C30.2713 55.0757 30.1895 54.5117 30.1709 53.8711C30.1661 53.7245 30.1614 53.5778 30.1565 53.4266C30.1528 53.2722 30.1491 53.1177 30.1453 52.9585C30.141 52.8 30.1366 52.6415 30.1322 52.4782C30.124 52.1614 30.1164 51.8447 30.1094 51.5279C30.1012 51.1525 30.0908 50.7772 30.0799 50.4019C30.0762 50.2107 30.0727 50.0196 30.0695 49.8284C30.0664 49.6672 30.0633 49.5061 30.0601 49.34C30.1287 48.5585 30.3845 47.8494 30.9485 47.2952C32.2585 46.3552 34.3264 46.4655 35.8709 46.326C36.2375 46.2926 36.6039 46.2574 36.9704 46.2221C37.2074 46.2004 37.4445 46.1787 37.6817 46.1573C37.7892 46.1467 37.8967 46.1361 38.0074 46.1252C39.1645 46.0248 40.3496 45.9658 41.2533 46.8054ZM35.5903 47.4775C35.2495 47.5097 34.9085 47.5388 34.5675 47.5678C34.3474 47.5884 34.1274 47.6091 33.9073 47.63C33.7569 47.6423 33.7569 47.6423 33.6034 47.6548C32.9293 47.7237 32.3661 47.893 31.7971 48.2748C31.2467 48.9742 31.2963 49.7587 31.3141 50.609C31.3161 50.7154 31.3181 50.8218 31.3201 50.9314C31.3247 51.1558 31.3296 51.3801 31.3348 51.6045C31.3425 51.9471 31.3475 52.2897 31.3524 52.6323C31.3572 52.8507 31.362 53.0692 31.3671 53.2876C31.3683 53.3897 31.3694 53.4917 31.3706 53.5969C31.3911 54.3004 31.5063 54.724 32.021 55.2294C32.9975 55.7811 34.9476 55.3157 36.0407 55.2334C36.3747 55.2085 36.7087 55.185 37.0428 55.1617C37.2586 55.1458 37.4744 55.1299 37.6902 55.1138C37.7883 55.1071 37.8865 55.1003 37.9876 55.0933C39.21 55.0138 39.21 55.0138 40.2759 54.4815C40.7796 53.8185 40.8057 53.246 40.8048 52.4391C40.8056 52.2803 40.8056 52.2803 40.8064 52.1184C40.8071 51.8951 40.8072 51.6717 40.8066 51.4484C40.8063 51.1084 40.8091 50.7686 40.8122 50.4287C40.8125 50.211 40.8125 49.9934 40.8124 49.7758C40.8135 49.675 40.8146 49.5742 40.8158 49.4703C40.8095 48.6707 40.6901 48.0941 40.1317 47.4893C39.7083 47.2426 39.4412 47.239 38.9537 47.2512C38.8702 47.253 38.7867 47.2549 38.7008 47.2568C37.6615 47.2878 36.6249 47.3783 35.5903 47.4775Z" fill="#FAFAFA"/>
<path d="M23.6716 43.2571C23.3728 43.592 23.0441 43.7999 22.6605 44.0277C22.5315 44.105 22.4025 44.1822 22.2696 44.2618C22.1346 44.3419 21.9997 44.422 21.8606 44.5046C16.9624 47.4174 12.8111 50.9219 11.3195 56.6496C11.1845 56.9715 11.1845 56.9715 10.9657 57.0969C10.8829 57.1111 10.8001 57.1253 10.7148 57.1399C10.5915 57.1641 10.5915 57.1641 10.4657 57.1887C10.2147 57.2164 10.2147 57.2164 9.72974 57.2164C10.1996 54.496 11.1551 52.0375 12.8818 49.8694C12.969 49.7567 13.0562 49.644 13.1461 49.5279C15.2426 46.8681 18.1059 44.8753 21.0651 43.2954C21.1419 43.2523 21.2188 43.2093 21.298 43.165C22.1321 42.7361 22.823 42.9357 23.6716 43.2571Z" fill="#FAFAFA"/>
<path d="M41.2197 0.229919C41.6139 -0.05753 41.9958 -0.0100572 42.4619 0.0307007C42.7934 0.096453 43.1111 0.193408 43.4326 0.297302C43.5218 0.325 43.6112 0.352749 43.7031 0.381287C43.9771 0.467009 44.2504 0.554301 44.5234 0.643005C44.6441 0.681992 44.6445 0.682328 44.7676 0.722107C45.3317 0.905274 45.8934 1.09565 46.4551 1.28656C46.6402 1.34916 46.8256 1.4115 47.0107 1.47406C48.7794 2.0728 50.5449 2.68101 52.3105 3.28851C54.38 4.00051 56.4518 4.70631 58.5273 5.39984C59.0112 5.56164 59.4948 5.72495 59.9775 5.89008C61.2285 6.31674 62.4818 6.72906 63.7471 7.11078C63.8726 7.14874 63.9986 7.1869 64.1279 7.22601C64.6375 7.37985 65.147 7.53367 65.6572 7.685C69.8863 8.94212 69.8868 8.94197 71.2881 10.7104C71.7091 11.6747 71.3266 12.6891 71.043 13.6459C70.9852 13.8482 70.9857 13.8488 70.9268 14.0551C70.7623 14.6294 70.5929 15.2021 70.4199 15.7739C70.3534 15.9971 70.3531 15.9973 70.2852 16.225C70.2464 16.3494 70.2079 16.4739 70.168 16.602C70.0934 16.9809 70.0972 17.1768 70.2246 17.5414C70.4117 17.8127 70.6 18.0619 70.8086 18.3149C70.9311 18.4684 71.0536 18.622 71.1758 18.7758C71.2392 18.8551 71.3028 18.9344 71.3682 19.0161C76.0351 24.8834 78.738 31.7848 79.6807 39.2153C79.6952 39.327 79.7096 39.4391 79.7246 39.5541C80.6593 46.954 79.1584 54.8317 75.9229 61.5014C75.8774 61.5955 75.832 61.6896 75.7852 61.7866C74.3928 64.6379 72.6146 67.2768 70.5889 69.7055C70.4855 69.8328 70.3816 69.9599 70.2783 70.0873C68.9416 71.7174 67.4651 73.3112 65.8018 74.6049C65.5391 74.8139 65.2907 75.0301 65.041 75.2543C60.0277 79.7092 53.4627 82.471 46.9482 83.6645C46.812 83.6904 46.6755 83.7169 46.5352 83.7436C44.3404 84.1458 42.1656 84.2025 39.9395 84.2084C39.8056 84.2092 39.6711 84.2096 39.5332 84.2104C33.7473 84.2313 28.1711 82.836 22.9434 80.3588C22.8496 80.3149 22.7558 80.2703 22.6592 80.225C20.1618 79.0456 17.8257 77.5619 15.6699 75.8276C15.5473 75.7296 15.4242 75.6317 15.2979 75.5307C14.5489 74.9215 13.8346 74.2775 13.124 73.6235C13.0228 73.5326 12.9217 73.4417 12.8174 73.3481C11.8031 72.4375 10.8457 71.4892 9.97168 70.4399C9.89546 70.3493 9.81877 70.2588 9.74023 70.1655C3.72839 62.8923 0.00690217 53.7711 0 44.2358C-8.1801e-05 44.1332 8.42802e-05 44.03 0 43.9243C0.00232673 42.0892 0.117696 40.2965 0.394531 38.4809C0.415336 38.3419 0.435596 38.2023 0.457031 38.059C1.46297 31.5061 3.93111 25.106 7.98047 19.8491C8.14516 19.634 8.30694 19.4167 8.46777 19.1987C9.10942 18.333 9.79867 17.5292 10.5322 16.7426C10.6957 16.5653 10.8558 16.3843 11.0156 16.2036C12.3324 14.7159 13.7745 13.3857 15.3506 12.183C15.5394 12.0388 15.7267 11.8926 15.9141 11.7465C22.062 6.99799 29.581 4.33054 37.249 3.58246C37.3777 3.56985 37.5071 3.55736 37.6396 3.54437C38.3981 3.47106 39.1568 3.40207 39.916 3.33734C39.9541 3.1956 39.9929 3.05369 40.0322 2.90765C40.0846 2.71922 40.137 2.53062 40.1895 2.34222C40.2267 2.20271 40.2266 2.20245 40.2646 2.06C40.4309 1.46979 40.6395 1.01897 41.0078 0.520935C41.0778 0.425003 41.1476 0.328759 41.2197 0.229919ZM45.6572 1.74164C43.4905 0.83054 43.4903 0.830945 41.3711 1.01117C41.2234 1.33696 41.2232 1.33744 41.1045 1.73187C41.0559 1.88286 41.007 2.03432 40.957 2.18988C40.9055 2.35545 40.8541 2.52132 40.8027 2.68695C40.7764 2.77044 40.7498 2.85386 40.7227 2.93988C40.2655 4.38838 39.872 5.84995 39.5146 7.3266C39.2953 8.22646 39.0312 9.08438 38.7041 9.94965C38.5486 10.3845 38.3979 10.821 38.249 11.2582C38.2108 11.3665 38.1732 11.4749 38.1338 11.5864C37.9101 12.248 37.7591 12.8011 37.8555 13.5004C38.0759 13.7813 38.0762 13.7811 38.4316 13.9594C38.4985 13.9978 38.5649 14.0371 38.6338 14.0766C40.3151 14.9982 42.1355 15.7009 43.9326 16.3559C45.1766 16.8111 46.383 17.3438 47.5918 17.8862C47.906 18.0266 48.2207 18.1662 48.5352 18.3061C48.728 18.392 48.9207 18.4783 49.1133 18.5649C49.5975 18.7809 50.0788 18.9738 50.585 19.1332V19.7455C48.7149 19.0209 46.864 18.2673 45.0303 17.4526C44.1109 17.0452 43.1863 16.6523 42.2568 16.269C42.1454 16.2229 42.0338 16.1768 41.9189 16.1293C41.4735 15.9452 41.0275 15.7611 40.5811 15.5795C37.6976 14.407 37.6973 14.4066 37.3701 13.7455C37.3067 12.8365 37.4921 12.1421 37.7871 11.2885C38.2077 10.0192 38.5881 8.74286 38.9463 7.45453C38.9706 7.3678 38.9954 7.28119 39.0205 7.19183C39.0898 6.94471 39.1582 6.69704 39.2266 6.44965C39.2661 6.30701 39.306 6.16397 39.3467 6.01703C39.4457 5.66522 39.4459 5.66469 39.4316 5.29633C35.8365 5.22427 32.0843 6.01467 28.6855 7.15961C28.4333 7.24407 28.18 7.32447 27.9258 7.40277C25.7879 8.08044 23.7064 9.00538 21.7314 10.0717C21.6164 10.1329 21.6164 10.1334 21.499 10.1957C19.4592 11.2861 17.5683 12.629 15.791 14.1127C15.7225 14.1694 15.6536 14.2263 15.583 14.2846C14.5555 15.1385 13.5981 16.0583 12.6543 17.0053C12.5491 17.1104 12.4433 17.2164 12.335 17.3246C11.6173 18.053 10.968 18.8188 10.3359 19.6235C10.263 19.7143 10.1894 19.8053 10.1143 19.8989C5.85911 25.2046 3.31459 31.5268 2.21289 38.2358C2.19289 38.3508 2.17295 38.4659 2.15234 38.5844C0.961148 45.6254 2.16554 53.3916 5.24414 59.7866C5.28397 59.8699 5.32322 59.9536 5.36426 60.0395C5.63946 60.6125 5.92431 61.1808 6.21387 61.7465C6.25572 61.8287 6.2977 61.9109 6.34082 61.9955C6.98448 63.2684 6.98477 63.2684 7.79004 64.4399H7.91113C8.1981 63.3164 8.19872 62.1904 8.20898 61.0385C8.21163 60.7891 8.21572 60.5398 8.2207 60.2905C8.22233 60.1438 8.22391 59.9972 8.22559 59.8461C8.28363 59.3366 8.40129 59.0149 8.63867 58.562C10.4047 57.5526 13.0535 57.9804 14.9258 58.4887C17.6486 59.2659 17.6493 59.2658 18.2842 60.3686C18.5934 61.1194 18.5732 61.8877 18.2686 62.6342C18.2356 62.7132 18.2029 62.7921 18.1689 62.8735C18.0243 63.3005 18.1512 63.6593 18.3057 64.0668C18.6231 64.9214 18.7581 65.8024 18.4912 66.6938C18.1864 67.3657 17.7528 67.6999 17.1396 68.0903C16.8261 68.312 16.6095 68.5089 16.3516 68.7866C15.6979 69.4597 15.0249 69.7608 14.0947 69.8256C13.3246 69.8297 12.5572 69.768 11.79 69.7055C12.2994 70.3185 12.8281 70.8998 13.3887 71.4653C13.4684 71.5457 13.5487 71.6265 13.6309 71.7094C14.1784 72.2556 14.7435 72.7635 15.3486 73.2446C15.6911 73.5176 16.0204 73.8034 16.3516 74.0903C16.9525 74.5962 17.5723 75.0693 18.208 75.5297C18.2955 75.594 18.3835 75.6579 18.4736 75.7241C18.9059 76.0323 19.2487 76.2738 19.792 76.3178C21.4657 73.4795 22.6069 70.4105 23.5498 67.2563C23.581 67.1587 23.6123 67.0609 23.6445 66.9604C23.9103 66.076 23.969 65.2572 23.9717 64.3364C23.9745 64.1141 23.9746 64.1139 23.9775 63.8871C23.9833 63.4158 23.9861 62.9444 23.9893 62.4731C23.9922 62.1642 23.9957 61.8552 23.999 61.5463C24.0007 61.394 24.0022 61.2413 24.0039 61.0844C24.0111 60.4757 24.02 59.8669 24.0293 59.2582C24.0346 58.8064 24.0353 58.3546 24.0352 57.9028C24.0385 57.6177 24.0412 57.3324 24.0449 57.0473C24.0427 56.8533 24.0433 56.8528 24.041 56.6547C24.0583 55.8199 24.2339 55.3997 24.8232 54.808C24.8832 54.7539 24.9432 54.6998 25.0049 54.644C25.0068 54.7883 25.0069 54.7887 25.0088 54.936C25.0208 55.8575 25.033 56.7791 25.0459 57.7006C25.0525 58.1741 25.0593 58.648 25.0654 59.1215C25.0725 59.6697 25.0799 60.2179 25.0879 60.7661C25.0892 60.8557 25.0905 60.9461 25.0918 61.0385C25.111 62.3244 25.1472 63.6085 25.2139 64.893C25.2546 65.716 25.2221 66.4572 25.0049 67.2563C24.9733 67.3789 24.9727 67.3792 24.9404 67.5043C24.3713 69.685 23.5353 71.7953 22.5723 73.8276C22.3958 74.271 22.4262 74.5214 22.5801 74.9711C23.0384 75.9643 23.7318 76.6803 24.5195 77.4194C23.5546 76.986 22.5383 76.4842 22.0947 75.4604C21.6199 75.6203 21.5758 75.8015 21.3447 76.2407C21.2805 76.3603 21.2166 76.4807 21.1504 76.6039C20.9792 76.926 20.9789 76.9261 21.0039 77.2973C22.8844 78.393 24.8066 79.3031 26.8232 80.1137C26.9667 80.1726 26.9669 80.1727 27.1133 80.2328C27.5339 80.4008 27.8189 80.4809 28.2783 80.4809C28.4521 80.3119 28.452 80.3115 28.584 80.0707C28.6393 79.9803 28.695 79.8895 28.752 79.7963C28.8106 79.6964 28.8693 79.5965 28.9297 79.4936C28.9923 79.3903 29.0546 79.2866 29.1191 79.1801C29.3252 78.8393 29.529 78.4972 29.7324 78.1547C30.0198 77.6748 30.3085 77.1947 30.5967 76.7153C30.7043 76.5359 30.7046 76.536 30.8145 76.353C31.352 75.4599 31.9083 74.5833 32.4932 73.7211C32.6516 73.4876 32.8096 73.2533 32.9668 73.019C34.8127 70.2763 36.507 68.1434 39.4316 66.5219C38.9772 67.0957 38.9769 67.0956 38.5225 67.6694C38.442 67.7714 38.3613 67.8738 38.2783 67.9789C38.0711 68.2397 37.8627 68.4992 37.6523 68.7573C36.7573 69.8616 35.9545 71.0074 35.1807 72.2006C35.0631 72.3805 34.9458 72.5608 34.8281 72.7407C34.5498 73.1666 34.272 73.593 33.9951 74.02C33.8127 74.3009 33.6295 74.5814 33.4463 74.8618C32.6748 76.0483 31.9463 77.2611 31.2197 78.476C30.9833 78.871 30.745 79.2645 30.501 79.6547C30.4549 79.7287 30.4078 79.8021 30.3604 79.8784C30.2429 80.066 30.1252 80.2538 30.0068 80.4409C29.8255 80.7258 29.8257 80.7257 29.8545 81.0932C33.0135 81.9334 36.2021 82.4663 39.4736 82.4565C39.7344 82.4558 39.9951 82.4557 40.2559 82.4565C41.2388 82.4569 42.2111 82.4214 43.1895 82.3178C43.128 81.428 43.0037 80.5595 42.8428 79.683C42.7473 79.1328 42.6911 78.5961 42.6699 78.0375C42.6612 76.7363 42.6612 76.7356 42.208 75.5571C41.9027 75.2846 41.5954 75.0653 41.25 74.8481C40.5998 74.2826 40.0833 73.6024 39.5625 72.9184C39.171 72.4042 38.763 71.9081 38.3408 71.4194C39.6209 72.2977 40.8383 73.2085 41.9736 74.2729C42.2251 74.4948 42.2257 74.495 42.5576 74.6938C43.1182 75.0727 43.5384 75.4025 43.7109 76.0776C43.8221 76.6686 43.8705 77.2646 43.917 77.8637C43.9461 78.1684 43.9768 78.4733 44.0078 78.7778C44.0278 78.9763 44.0479 79.1748 44.0664 79.3735C44.1547 80.2884 44.3234 81.1762 44.5234 82.0727C45.5051 82.1169 46.4196 81.9517 47.3799 81.7592C47.4614 81.7432 47.5429 81.7269 47.627 81.7104C49.2077 81.3985 50.7479 80.9766 52.2822 80.4809C52.1607 79.0266 52.0226 77.5756 51.8506 76.1264C51.8352 75.9962 51.8195 75.866 51.8037 75.7319C51.7379 75.1872 51.6665 74.651 51.5547 74.1137C51.4786 74.1624 51.4026 74.2111 51.3242 74.2612C49.7979 75.2154 49.7972 75.2153 49.0088 75.2153C49.0776 75.1648 49.1469 75.1149 49.2178 75.0629C49.7028 74.6965 50.1732 74.3185 50.6006 73.8842C50.706 73.7787 50.7059 73.7781 50.8135 73.6703C51.0368 73.189 50.9562 72.7823 50.8271 72.2768C50.6297 71.7644 50.3881 71.2803 50.1377 70.7924C50.0678 70.654 49.9978 70.5152 49.9258 70.3725C48.6959 67.9728 47.303 65.6044 45.5244 63.5766C44.7085 62.5019 44.6867 61.5492 44.6758 60.2416C44.6724 60.0336 44.6687 59.8256 44.665 59.6176C44.6538 58.8986 44.6485 58.1795 44.6445 57.4604C44.6438 57.3258 44.6434 57.1909 44.6426 57.0522C44.6315 54.922 44.6321 52.7918 44.6357 50.6616C44.637 49.8511 44.6381 49.0404 44.6387 48.2299C44.64 46.6538 44.6419 45.0776 44.6445 43.5014C44.7618 44.2314 44.8781 44.9616 44.9941 45.6918C45.0336 45.9394 45.0735 46.1875 45.1133 46.435C45.6681 49.8899 45.9928 53.331 45.9785 56.8334C45.9786 57.2812 45.979 57.7294 45.9795 58.1772C45.9788 58.4819 45.9758 58.7866 45.9717 59.0912C45.8741 61.3225 45.8746 61.3228 46.9082 63.1899C47.0014 63.2791 47.0944 63.3685 47.1904 63.4604C47.3192 63.6294 47.4447 63.8012 47.5645 63.977C47.6464 64.0926 47.6459 64.0934 47.7295 64.2114C49.2085 66.3248 50.4806 68.5018 51.6221 70.8198C51.7614 71.1014 51.9035 71.3811 52.0488 71.6596C52.6962 72.9988 52.8198 74.4897 53.0098 75.9506C53.0322 76.1205 53.0547 76.2905 53.0771 76.4604C53.2214 77.555 53.3596 78.6506 53.4941 79.7465C53.934 79.8946 54.0181 79.8343 54.4316 79.6518C54.5456 79.6019 54.6599 79.5518 54.7773 79.5004C54.8992 79.4453 55.021 79.3902 55.1465 79.3334C55.2722 79.2771 55.3979 79.2205 55.5273 79.1625C58.955 77.6089 62.0725 75.5181 64.8906 73.0112C64.9844 72.93 65.0782 72.8487 65.1748 72.7651C66.6323 71.4798 68.0756 70.0861 69.2627 68.5405C69.4231 68.3327 69.5903 68.1299 69.7627 67.9321C71.3394 66.1195 72.6368 64.0049 73.7402 61.8686C73.7807 61.7912 73.8216 61.7139 73.8633 61.6342C76.6694 56.2403 78.1293 50.2106 78.1348 44.1205C78.1349 44.0248 78.1356 43.9291 78.1357 43.8305C78.1341 41.9477 77.9995 40.102 77.7412 38.2358C77.7243 38.1124 77.7078 37.9888 77.6904 37.8618C76.8095 31.6645 74.3024 25.8042 70.5283 20.8549C70.4571 20.7614 70.3849 20.6681 70.3115 20.5717C70.2441 20.485 70.1768 20.3983 70.1074 20.309C70.0482 20.2327 69.9887 20.1562 69.9277 20.0776C69.723 19.8496 69.5036 19.6773 69.2549 19.5004C68.9646 20.1774 68.6861 20.8547 68.4453 21.5512C68.41 21.6523 68.3743 21.7537 68.3379 21.8578C68.2688 22.0572 68.2009 22.2571 68.1348 22.4575C67.7895 23.4488 67.2788 24.2537 66.3457 24.7661C64.9371 25.2227 63.5448 24.771 62.2236 24.2758C62.1053 24.2317 62.1051 24.2319 61.9844 24.187C61.5364 24.0187 61.0909 23.8447 60.6475 23.6645C60.6136 23.7534 60.5798 23.8424 60.5449 23.934C60.2134 24.7737 59.8256 25.5391 59.3564 26.309C59.1723 26.5819 59.1725 26.5825 59.1924 26.8481C59.2723 26.8884 59.3523 26.9286 59.4346 26.9702C59.3852 28.0302 59.126 29.0198 58.8291 30.0317C58.8066 30.111 58.784 30.1902 58.7607 30.2719C57.0183 36.3182 53.4518 41.9336 49.0957 46.3735C48.9297 46.5427 48.7642 46.7126 48.5986 46.8823C48.002 47.4856 47.4009 48.0364 46.7051 48.5209C46.5049 48.1163 46.5193 47.8693 46.584 47.4194C46.8644 47.0442 47.202 46.7459 47.5537 46.4399C47.6363 46.368 47.7196 46.2962 47.8047 46.2221C47.8845 46.1527 47.9646 46.0827 48.0469 46.0112C48.4517 45.6587 48.8 45.2826 49.1445 44.8705C49.3022 44.6856 49.4646 44.5047 49.6309 44.3276C51.8311 41.9806 53.5249 39.2115 55.0703 36.3989C55.1182 36.3128 55.1664 36.2268 55.2158 36.1381C55.884 34.9355 56.4563 33.6902 57.0176 32.434C57.0534 32.3543 57.0901 32.2749 57.127 32.1928C57.2293 31.9643 57.3307 31.7345 57.4316 31.5053C57.4906 31.3719 57.5496 31.2385 57.6104 31.101C57.7595 30.769 57.7591 30.7688 57.7373 30.3989C57.492 30.1803 57.492 30.18 57.165 29.9731C57.0432 29.8916 56.9214 29.81 56.7959 29.726C56.6642 29.64 56.5322 29.5539 56.3965 29.4653C56.2628 29.377 56.129 29.2887 55.9912 29.1977C55.6045 28.9435 55.2166 28.6913 54.8281 28.4399C54.7366 28.38 54.645 28.32 54.5508 28.2582C53.2169 27.3881 51.661 26.4678 50.0996 26.1127C49.96 26.3879 49.8218 26.664 49.6836 26.9399C49.64 27.0269 49.5957 27.1139 49.5508 27.2036C49.2592 27.7924 48.9913 28.388 48.7334 28.9926C47.7427 31.3038 46.3181 33.1845 44.5234 34.9291C44.7079 33.6282 44.9596 32.6028 45.8066 31.5805C46.8455 30.3234 47.52 28.7839 48.2129 27.3149C48.2919 27.1487 48.3711 26.982 48.4502 26.8159C48.9433 25.7787 49.4334 24.7393 49.915 23.6967C50.2084 23.0646 50.2088 23.0645 50.3428 22.9291C52.7523 22.6121 55.1698 24.472 57.1387 25.6313C57.2398 25.6905 57.3412 25.7499 57.4453 25.811C57.534 25.8634 57.6225 25.9162 57.7139 25.9702C57.9976 26.123 58.2856 26.2425 58.5859 26.3578C59.2946 25.5119 59.7975 24.5013 60.041 23.4194C59.8886 23.3765 59.7361 23.3337 59.5791 23.2895C58.8564 23.0481 58.226 22.6512 57.6162 22.1948C57.5762 22.1139 57.5363 22.0329 57.4951 21.9496C58.1041 22.0168 58.5793 22.2299 59.1172 22.5082C59.9911 22.9427 60.882 23.2794 61.8066 23.5873C61.9291 23.6281 62.0515 23.6693 62.1777 23.7114C63.7351 24.2954 63.7353 24.295 65.3203 24.1479C65.7218 23.8251 65.8055 23.4658 65.9287 22.9828C65.9738 22.8167 66.0193 22.6506 66.0654 22.4848C66.1015 22.3553 66.1019 22.3553 66.1387 22.2231C66.2315 21.9272 66.3449 21.6459 66.4639 21.3598C66.7322 20.6984 66.8918 20.0278 67.0498 19.3325C67.3509 18.0634 67.7374 16.8496 68.1816 15.6254C68.6171 14.4133 69.0094 13.1841 69.3682 11.9467C69.3953 11.8574 69.4232 11.7683 69.4512 11.6762C69.6119 11.1044 69.6475 10.6613 69.4971 10.0717C69.2472 9.76224 69.0116 9.63083 68.6426 9.4975C68.5421 9.46074 68.4415 9.42404 68.3379 9.38617C68.2279 9.34733 68.1182 9.30802 68.0049 9.26801C67.8899 9.22665 67.7747 9.18562 67.6562 9.14301C66.6241 8.77475 65.5873 8.41947 64.5498 8.06683C64.4722 8.04032 64.3944 8.01407 64.3145 7.98676C63.546 7.72469 62.7882 7.47929 61.9932 7.31586C61.5063 7.2017 61.0405 7.02201 60.5713 6.85004C60.3574 6.77315 60.1436 6.69626 59.9297 6.61957C59.8253 6.582 59.7208 6.54401 59.6133 6.50531C58.4912 6.10374 57.3633 5.73711 56.2119 5.43011C55.894 5.32763 55.6216 5.21783 55.3223 5.07562C54.6219 4.75834 53.8992 4.52499 53.1689 4.28851C52.9435 4.21457 52.7176 4.14081 52.4922 4.06683C52.0991 3.93802 51.7058 3.81018 51.3125 3.68207C50.6986 3.48197 50.0842 3.28095 49.4707 3.07953C49.3201 3.03011 49.1698 2.98005 49.0146 2.92914C47.8872 2.55623 46.769 2.15986 45.6572 1.74164ZM12.9971 61.9536C11.6543 61.9467 10.3901 62.1055 9.09375 62.4604C8.7894 62.6672 8.78889 62.6671 8.63965 63.3383C8.48213 64.8474 8.55169 66.1434 9.4375 67.4067C10.234 68.4098 11.1379 68.94 12.3984 69.0942C12.1491 68.6135 11.9509 68.1429 11.792 67.6245C12.1658 68.1908 12.6481 68.56 13.2314 68.8871C13.8087 69.163 14.3507 69.2157 14.9668 69.0024C15.0414 68.9504 15.1141 68.8995 15.1865 68.8491C15.4896 68.6501 15.4899 68.6496 15.793 68.3588C16.415 67.4986 16.353 66.5954 16.2168 65.5805C16.1863 65.438 16.1862 65.4373 16.1562 65.2973C16.6722 65.8325 16.8779 66.2945 17.0684 67.0151C17.0882 67.0973 17.1068 67.1774 17.126 67.2573C17.2039 67.2223 17.2798 67.1877 17.3555 67.1537C17.735 66.9429 17.7351 66.9431 17.9746 66.2778C18.084 65.1399 17.7581 64.0636 17.1416 63.1088C16.1019 62.0588 14.8239 61.9737 13.415 61.9545C13.273 61.954 13.135 61.9541 12.9971 61.9536ZM17.1533 59.9828C15.0811 58.5009 11.3793 58.1885 9.08105 59.1772C8.8262 59.4888 8.82596 59.4891 8.83789 60.2817C8.84207 60.3926 8.84653 60.5002 8.85059 60.6078C8.8582 60.9881 8.86678 61.3684 8.88086 61.7485C11.2481 61.3394 13.6753 61.0438 15.9365 62.017C16.0106 62.0505 16.0824 62.0832 16.1543 62.1157C16.1955 62.0324 16.2354 61.9514 16.2754 61.8705C16.5247 61.9881 16.5249 61.9889 16.7539 62.1664C16.8873 62.2686 16.8878 62.2685 17.0186 62.3686C17.1527 62.471 17.1527 62.4713 17.2842 62.5717C17.3534 62.6249 17.4211 62.6763 17.4883 62.728C17.7526 62.437 17.8477 62.2754 17.8916 61.8774C17.8884 61.7452 17.885 61.617 17.8818 61.4887C17.8784 61.2487 17.8695 61.0083 17.8516 60.769C17.685 60.4324 17.4381 60.2192 17.1533 59.9828Z" fill="#FAFAFA"/>
<path d="M15.145 28.8477C16.2007 28.0438 17.782 27.856 18.9429 28.5625C20.0626 29.3777 20.3074 30.6855 20.519 31.9912C20.5678 32.4194 20.595 32.8469 20.6167 33.2773C20.6244 33.384 20.6322 33.4907 20.6401 33.6006C20.6885 34.5285 20.546 35.3652 20.0415 36.1543C19.8014 36.3895 19.6052 36.5033 19.3062 36.6445C19.3324 36.5456 19.3592 36.4466 19.3862 36.3447C19.42 36.214 19.4531 36.0829 19.4878 35.9482C19.5215 35.8191 19.5556 35.6897 19.5903 35.5566C19.6625 35.2108 19.6859 34.9141 19.6704 34.5625C19.654 34.6484 19.6375 34.7348 19.6206 34.8232C19.3989 35.8101 19.0337 36.5219 18.1694 37.0732C17.3882 37.2235 16.7185 37.2185 16.0142 36.8135C15.0845 36.1112 14.4903 34.7543 14.2476 33.6348C14.1638 32.8859 14.1916 32.1307 14.2144 31.3789C14.2165 31.2706 14.2189 31.1623 14.2212 31.0508C14.2701 30.2357 14.5659 29.4312 15.145 28.8477ZM17.3706 29.418C16.5469 29.2519 15.8591 29.5321 15.3101 30.1533C14.7154 31.0736 14.7212 32.1545 14.7974 33.2148C14.9291 34.3801 15.5216 35.3427 16.3931 36.0918C16.8516 36.3186 17.1092 36.3678 17.6128 36.2754C17.972 35.9632 18.1416 35.6854 18.3638 35.2695C18.9165 34.0027 18.9008 32.3186 18.4595 31.0137C18.4086 30.885 18.3594 30.7596 18.3101 30.6348C18.0917 30.0669 17.8843 29.7487 17.3706 29.418Z" fill="#FAFAFA"/>
<path d="M58.7103 14.4821C59.5375 14.7224 60.3457 14.9958 61.1515 15.301C61.3195 15.3641 61.3195 15.3641 61.4909 15.4285C61.7256 15.5169 61.9602 15.6054 62.1947 15.694C62.5521 15.8291 62.9096 15.9635 63.2672 16.0979C63.4965 16.1842 63.7258 16.2707 63.9551 16.3571C64.0609 16.3969 64.1668 16.4367 64.2758 16.4777C64.8523 16.696 65.4205 16.926 65.9843 17.176C65.9044 17.7718 65.746 18.3098 65.5524 18.875C65.524 18.9593 65.4957 19.0436 65.4665 19.1304C65.3971 19.3363 65.3271 19.5419 65.2569 19.7475C64.6528 19.6735 64.1315 19.4815 63.5762 19.2414C63.4853 19.2028 63.3943 19.1643 63.3006 19.1245C63.0103 19.0013 62.7205 18.8769 62.4307 18.7525C62.1467 18.6315 61.8626 18.5107 61.5785 18.39C61.3902 18.3098 61.202 18.2293 61.0139 18.1485C60.5342 17.9429 60.0532 17.7423 59.5682 17.5497C59.4252 17.4923 59.4252 17.4923 59.2792 17.4337C59.0974 17.361 58.9151 17.2894 58.7323 17.2191C58.5187 17.1332 58.3107 17.0333 58.1041 16.9311C57.9365 16.423 58.111 16.0575 58.2708 15.5688C58.2993 15.4781 58.3277 15.3873 58.357 15.2938C58.5707 14.6231 58.5707 14.6231 58.7103 14.4821Z" fill="#FAFAFA"/>
<path d="M37.7752 24.0774C37.975 24.2769 37.975 24.2769 38.1038 24.6902C38.0963 25.0116 38.0963 25.0116 37.8538 25.2565C37.2911 25.6354 36.7385 25.543 36.0992 25.421C35.9556 25.3869 35.812 25.3528 35.664 25.3177C32.5117 24.6547 29.4008 25.3671 26.7003 27.0932C26.2316 27.4315 25.8005 27.813 25.3668 28.1953C25.2063 28.3194 25.0451 28.4425 24.8818 28.5626C25.2354 27.0548 26.593 25.7468 27.8293 24.9197C30.515 23.3051 34.9863 22.0487 37.7752 24.0774Z" fill="#FAFAFA"/>
<path d="M46.1035 13.1334C46.8312 13.2796 47.515 13.4754 48.208 13.7418C48.2992 13.7762 48.3904 13.8106 48.4844 13.8461C48.772 13.9548 49.0592 14.0645 49.3465 14.1742C49.5408 14.2478 49.7351 14.3213 49.9294 14.3947C51.3944 14.9493 51.3944 14.9493 52.0439 15.2151C51.9762 15.8808 51.8088 16.4296 51.5514 17.0442C51.5173 17.1279 51.4831 17.2116 51.4479 17.2979C51.3646 17.502 51.2801 17.7055 51.1953 17.909C50.6305 17.8366 50.1686 17.6788 49.6481 17.4479C49.5333 17.3973 49.5333 17.3973 49.4162 17.3457C49.1729 17.2383 48.9301 17.1298 48.6873 17.0212C48.5267 16.9502 48.3661 16.8792 48.2054 16.8084C47.2991 16.4077 46.3966 15.9989 45.4973 15.5824C45.6714 14.7573 45.878 13.9457 46.1035 13.1334Z" fill="#FAFAFA"/>
<path d="M56.4068 16.9272C57.2189 17.4287 57.882 18.063 58.2083 18.985C58.2382 19.4573 57.9746 19.7588 57.7053 20.1253C57.4979 20.3558 57.4979 20.3558 57.1342 20.6007C56.6698 20.5616 56.4351 20.4973 56.0431 20.2334C56.0289 19.8828 56.0289 19.8828 56.0583 19.4604C56.0865 18.911 56.0865 18.911 55.9181 18.4047C55.5709 18.0613 55.2781 17.9149 54.8005 17.8685C54.2476 17.9151 54.0359 18.0299 53.6184 18.3966C52.9883 19.1737 52.6575 20.1695 52.2849 21.0905C52.3654 21.118 52.4458 21.1455 52.5288 21.1738C53.0032 21.3855 53.4109 21.6681 53.8382 21.963C53.9222 22.0203 54.0062 22.0776 54.0927 22.1366C54.2987 22.2772 54.5042 22.4185 54.7095 22.5599C54.281 22.7042 54.1498 22.6512 53.7259 22.5197C53.6046 22.4823 53.4832 22.4449 53.3582 22.4064C53.2316 22.3661 53.1049 22.3259 52.9744 22.2844C52.8491 22.2461 52.7239 22.2077 52.5948 22.1682C51.9768 21.9752 51.3957 21.7765 50.8301 21.4579C50.9397 20.6348 51.2572 19.9468 51.5878 19.1925C51.6748 18.9877 51.6748 18.9877 51.7635 18.7788C52.1918 17.7952 52.5802 16.9776 53.591 16.5226C54.573 16.2128 55.5078 16.4861 56.4068 16.9272Z" fill="#FAFAFA"/>
<path d="M61.4989 12.0314C62.0348 12.0902 62.4944 12.2411 62.993 12.4433C63.2102 12.5305 63.2102 12.5305 63.4318 12.6195C63.5831 12.6811 63.7344 12.7427 63.8857 12.8044C64.9034 13.2157 65.9212 13.6205 66.9544 13.9906C66.9032 14.5592 66.7781 15.0817 66.6134 15.6284C66.5751 15.7556 66.5368 15.8829 66.4974 16.0139C66.3482 16.3172 66.3482 16.3172 66.1269 16.4079C65.8159 16.4453 65.6621 16.3946 65.375 16.2718C65.2801 16.2322 65.1853 16.1926 65.0875 16.1518C64.9859 16.1079 64.8844 16.064 64.7798 16.0187C64.5633 15.9276 64.3467 15.8367 64.13 15.7461C64.0174 15.6988 63.9048 15.6516 63.7888 15.6029C63.4338 15.4581 63.0765 15.3223 62.7169 15.1893C62.6006 15.1461 62.4843 15.1029 62.3645 15.0585C62.1386 14.9751 61.9124 14.8928 61.6857 14.8115C61.5836 14.7734 61.4815 14.7354 61.3762 14.6962C61.2856 14.6633 61.195 14.6304 61.1017 14.5965C60.8927 14.4804 60.8927 14.4804 60.7715 14.1131C60.8573 13.7741 60.951 13.4495 61.0594 13.1182C61.0879 13.0274 61.1163 12.9367 61.1456 12.8431C61.3593 12.1725 61.3593 12.1725 61.4989 12.0314Z" fill="#FAFAFA"/>
<path d="M40.6401 7.86613C41.9864 8.33395 43.3279 8.81432 44.6635 9.31258C44.7917 9.35969 44.9198 9.40679 45.0519 9.45533C45.1705 9.49993 45.2891 9.54453 45.4113 9.59048C45.5171 9.62992 45.623 9.66935 45.732 9.70997C45.9744 9.82534 45.9744 9.82534 46.0956 10.0702C46.0056 10.3675 45.909 10.6527 45.8001 10.9427C45.7706 11.0234 45.7412 11.104 45.7108 11.1871C45.6379 11.3866 45.5637 11.5856 45.4894 11.7845C44.5201 11.6238 43.6181 11.3341 42.6935 11.0039C42.5578 10.9566 42.422 10.9092 42.2822 10.8604C41.5158 10.5898 40.7687 10.297 40.0339 9.94779C40.1117 9.62367 40.1901 9.29972 40.2688 8.97584C40.2909 8.88342 40.3131 8.791 40.3358 8.69578C40.5051 8.00246 40.5051 8.00246 40.6401 7.86613Z" fill="#FAFAFA"/>
<path d="M63.9179 9.58078C64.495 9.65078 65.0155 9.76754 65.5655 9.95626C65.7104 10.0056 65.8554 10.0549 66.0047 10.1057C66.1537 10.1573 66.3027 10.2088 66.4563 10.2619C66.6101 10.3145 66.7639 10.367 66.9177 10.4195C67.292 10.5474 67.666 10.676 68.0399 10.8053C67.9164 11.4834 67.7857 12.1341 67.5398 12.7798C67.497 12.8938 67.4541 13.0077 67.41 13.1251C67.3778 13.2082 67.3456 13.2912 67.3125 13.3767C66.7762 13.3022 66.3043 13.1668 65.798 12.9745C65.6527 12.9196 65.5073 12.8648 65.3576 12.8083C65.206 12.7503 65.0545 12.6924 64.903 12.6344C64.7486 12.5759 64.5942 12.5175 64.4398 12.4591C64.0636 12.3166 63.6876 12.1735 63.3118 12.0298C63.3476 11.8184 63.384 11.6072 63.4207 11.396C63.4409 11.2784 63.4611 11.1607 63.482 11.0395C63.5838 10.5371 63.7418 10.061 63.9179 9.58078Z" fill="#FAFAFA"/>
<path d="M30.3403 47.7887C30.3403 47.8695 30.3403 47.9503 30.3403 48.0336C30.1739 48.0781 30.1739 48.0781 30.0041 48.1235C29.788 48.1851 29.788 48.1851 29.5675 48.2479C29.424 48.2877 29.2806 48.3274 29.1327 48.3684C28.763 48.4842 28.763 48.4842 28.6221 48.7339C28.4993 49.0761 28.4902 49.3542 28.4885 49.7184C28.4874 49.8602 28.4862 50.0021 28.485 50.1482C28.4852 50.301 28.4853 50.4538 28.4854 50.6113C28.4846 50.8477 28.4846 50.8477 28.4838 51.0889C28.4829 51.4225 28.4829 51.7561 28.4836 52.0897C28.4843 52.5155 28.4822 52.9411 28.4794 53.3668C28.4772 53.7749 28.4776 54.1829 28.4778 54.5909C28.4767 54.743 28.4756 54.895 28.4744 55.0517C28.4795 56.0197 28.533 56.6715 29.1659 57.4316C30.5696 58.6186 32.5559 58.2165 34.2496 58.0673C34.4067 58.054 34.5637 58.0407 34.7255 58.027C35.0543 57.9992 35.383 57.9708 35.7118 57.9421C36.131 57.9055 36.5502 57.8697 36.9696 57.8343C37.3738 57.8 37.778 57.7653 38.1822 57.7306C38.3316 57.7178 38.481 57.7051 38.6349 57.6919C39.3085 57.633 39.9773 57.5699 40.6452 57.4623C39.9135 58.2859 38.6893 58.2808 37.6669 58.3668C37.4501 58.3864 37.4501 58.3864 37.2289 58.4064C36.924 58.4336 36.619 58.4603 36.314 58.4863C35.8531 58.5257 35.3925 58.5674 34.9318 58.6095C30.1936 59.0325 30.1936 59.0325 28.984 58.0592C28.3795 57.5425 27.9705 56.8734 27.8591 56.0797C27.8377 55.6029 27.8345 55.1282 27.8394 54.6512C27.8393 54.4755 27.839 54.2998 27.8385 54.1241C27.8382 53.758 27.84 53.3919 27.8433 53.0259C27.8475 52.5571 27.8467 52.0885 27.8444 51.6198C27.8432 51.2579 27.8442 50.896 27.8461 50.5341C27.8467 50.3613 27.8466 50.1884 27.8459 50.0155C27.8452 49.7744 27.848 49.5333 27.851 49.2921C27.8518 49.1552 27.8525 49.0182 27.8533 48.877C27.9295 48.4448 28.0641 48.3024 28.4006 48.0336C29.0213 47.7879 29.6812 47.7604 30.3403 47.7887Z" fill="#FAFAFA"/>
<path d="M41.3703 4.93031C41.8361 5.01003 42.2475 5.14682 42.6859 5.32397C42.819 5.37772 42.9521 5.43146 43.0893 5.48684C43.2272 5.54311 43.365 5.59938 43.507 5.65736C43.6458 5.71316 43.7846 5.76896 43.9275 5.82645C44.9599 6.24539 44.9599 6.24539 45.371 6.52217C45.3391 6.68563 45.306 6.84885 45.2725 7.01197C45.2542 7.10289 45.2359 7.19381 45.2171 7.28748C45.098 7.74031 44.9321 8.16682 44.7648 8.60382C44.2512 8.43191 43.7377 8.25976 43.2242 8.08738C43.0495 8.02876 42.8748 7.97021 42.7 7.91172C42.449 7.8277 42.198 7.74344 41.9471 7.65914C41.796 7.60848 41.6449 7.55782 41.4892 7.50563C41.1278 7.37932 41.1278 7.37932 40.8853 7.25687C40.8094 6.41339 41.0844 5.71534 41.3703 4.93031Z" fill="#FAFAFA"/>
<path d="M62.2227 19.5026C62.8538 19.5779 63.3804 19.7776 63.9578 20.0307C64.046 20.0669 64.1342 20.1031 64.2251 20.1405C64.8643 20.419 64.8643 20.419 64.9833 20.714C65.0289 21.1387 64.8636 21.5118 64.7231 21.9057C64.6947 21.9891 64.6662 22.0724 64.6369 22.1583C64.5316 22.4642 64.4272 22.7637 64.2836 23.0537C63.2542 22.8713 62.333 22.4799 61.374 22.0741C61.5946 21.1861 61.8664 20.3446 62.2227 19.5026Z" fill="#FAFAFA"/>
<path d="M39.7934 10.5635C40.4424 10.7746 41.0856 10.9993 41.7256 11.237C41.8592 11.2862 41.9928 11.3355 42.1305 11.3862C42.4606 11.5431 42.4606 11.5431 42.703 11.9105C42.6638 12.1545 42.6638 12.1545 42.5676 12.4285C42.534 12.5267 42.5004 12.625 42.4658 12.7262C42.4107 12.8793 42.4107 12.8793 42.3545 13.0355C42.3187 13.1389 42.2829 13.2424 42.246 13.349C42.1573 13.6048 42.0672 13.8599 41.9756 14.1146C41.3203 14.0395 40.7725 13.8153 40.1723 13.5559C40.0773 13.5156 39.9822 13.4752 39.8843 13.4337C39.6517 13.3348 39.4194 13.235 39.1873 13.135C39.2429 12.4668 39.3342 11.8651 39.5585 11.2293C39.6024 11.1029 39.6464 10.9765 39.6916 10.8462C39.7252 10.7529 39.7588 10.6596 39.7934 10.5635Z" fill="#FAFAFA"/>
<path d="M42.463 2.1137C43.0758 2.20321 43.6267 2.44233 44.1981 2.67238C44.3502 2.73287 44.3502 2.73287 44.5053 2.79459C44.7541 2.89371 45.0028 2.99329 45.2514 3.0933C45.1997 3.72646 45.1344 4.28825 44.8801 4.87649C44.8362 4.98019 44.7923 5.08389 44.747 5.19074C44.6966 5.30415 44.6966 5.30415 44.6452 5.41986C44.0612 5.34771 43.5895 5.17306 43.054 4.93006C42.4118 4.63393 42.4118 4.63393 41.7356 4.44026C41.8932 3.61795 42.1356 2.88267 42.463 2.1137Z" fill="#FAFAFA"/>
<path d="M58.9514 18.0306C59.3737 18.1873 59.7953 18.346 60.2168 18.5051C60.3372 18.5497 60.4576 18.5944 60.5816 18.6404C60.6961 18.6838 60.8106 18.7273 60.9285 18.772C61.0346 18.8117 61.1406 18.8515 61.2498 18.8925C61.4973 19.0102 61.4973 19.0102 61.6185 19.2551C61.5544 19.5077 61.5544 19.5077 61.4447 19.8147C61.3867 19.9793 61.3867 19.9793 61.3275 20.1472C61.286 20.2619 61.2445 20.3767 61.2018 20.4949C61.1608 20.6106 61.1197 20.7263 61.0775 20.8455C60.9757 21.132 60.8732 21.4182 60.7699 21.7041C60.163 21.6371 59.6822 21.4296 59.1484 21.1454C59.0707 21.1051 58.993 21.0647 58.913 21.0232C58.7233 20.9245 58.5342 20.8246 58.3452 20.7245C58.3701 20.6415 58.3949 20.5584 58.4205 20.4729C58.6209 19.7738 58.7569 19.1122 58.8046 18.3855C58.8301 18.153 58.8301 18.153 58.9514 18.0306Z" fill="#FAFAFA"/>
<path d="M24.6398 49.8685C24.9516 50.4218 24.924 50.9136 24.9202 51.5369C24.9195 51.7019 24.9195 51.7019 24.9189 51.8703C24.9029 52.8553 24.8164 53.7522 24.1549 54.5216C24.0749 54.5216 23.9949 54.5216 23.9124 54.5216C23.8882 54.5886 23.864 54.6555 23.839 54.7244C23.6008 55.1288 23.2604 55.3904 22.9047 55.6849C22.7506 55.8154 22.5967 55.9461 22.4429 56.0771C22.3647 56.1438 22.2864 56.2105 22.2057 56.2792C21.238 57.1164 20.3179 58.0107 19.4268 58.9298C19.3057 59.0524 19.1845 59.1749 19.0631 59.2972C18.9431 59.4184 18.9431 59.4184 18.8206 59.5421C18.6606 59.3805 18.5006 59.2188 18.3357 59.0523C19.1887 57.9719 20.0232 57.0366 21.1013 56.19C22.7436 54.8993 24.0893 53.6126 24.5186 51.4604C24.5452 51.1852 24.5677 50.9096 24.5868 50.6338C24.5969 50.4905 24.6071 50.3472 24.6176 50.1995C24.6286 50.0357 24.6286 50.0357 24.6398 49.8685Z" fill="#FAFAFA"/>
<path d="M58.2259 10.8061C58.6286 10.8874 58.9434 10.9576 59.3156 11.1012C59.4012 11.134 59.4867 11.1667 59.5749 11.2005C59.6623 11.2345 59.7498 11.2685 59.8399 11.3036C59.9745 11.3553 59.9745 11.3553 60.1119 11.4081C60.3321 11.4927 60.552 11.5779 60.7718 11.6633C60.7007 12.2568 60.5807 12.8007 60.4006 13.3699C60.3566 13.5099 60.3127 13.6499 60.2675 13.7942C60.2339 13.8991 60.2003 14.0041 60.1657 14.1123C59.2542 13.8772 58.379 13.59 57.4985 13.2551C57.7386 12.4469 57.9786 11.6388 58.2259 10.8061Z" fill="#FAFAFA"/>
<path d="M55.1888 9.82748C56.0662 9.98729 56.8941 10.2662 57.7347 10.5622C57.6825 10.7869 57.6292 11.0113 57.5756 11.2357C57.5461 11.3607 57.5165 11.4857 57.4861 11.6145C57.3538 12.0941 57.1856 12.5471 57.0073 13.0112C56.6506 12.8982 56.2947 12.7827 55.939 12.6668C55.7874 12.6189 55.7874 12.6189 55.6328 12.5699C55.5355 12.538 55.4382 12.506 55.338 12.4731C55.2485 12.4442 55.159 12.4154 55.0667 12.3856C54.802 12.2661 54.652 12.1272 54.4614 11.9091C54.5595 11.585 54.658 11.2611 54.7569 10.9372C54.7848 10.8448 54.8127 10.7524 54.8415 10.6571C55.0539 9.96381 55.0539 9.96381 55.1888 9.82748Z" fill="#FAFAFA"/>
<path d="M54.8315 6.52157C55.7213 6.57342 56.5345 6.8548 57.3774 7.13382C57.3038 7.95146 57.0408 8.68909 56.7712 9.46037C56.1474 9.38982 55.6134 9.2464 55.0209 9.02415C54.8711 8.96843 54.7212 8.91271 54.5668 8.8553C54.4541 8.81252 54.3414 8.76975 54.2253 8.72567C54.3829 6.97463 54.3829 6.97463 54.8315 6.52157Z" fill="#FAFAFA"/>
<path d="M61.0104 8.47881C61.7968 8.68469 62.5582 8.91113 63.3138 9.21351C63.2354 10.0646 62.967 10.8521 62.7076 11.6625C62.1919 11.574 61.7155 11.4171 61.2225 11.2416C60.9965 11.1623 60.9965 11.1623 60.766 11.0814C60.4042 10.9278 60.4042 10.9278 60.283 10.6829C60.37 10.3281 60.4649 9.98335 60.5709 9.63443C60.5993 9.53728 60.6278 9.44012 60.6571 9.34002C60.8717 8.61885 60.8717 8.61885 61.0104 8.47881Z" fill="#FAFAFA"/>
<path d="M52.5273 12.2781C53.3729 12.4297 54.1519 12.7017 54.952 13.0128C54.8825 13.7712 54.753 14.5079 54.467 15.217C54.2246 15.3394 54.2246 15.3394 53.9856 15.2746C53.8904 15.2381 53.7951 15.2015 53.697 15.1639C53.5939 15.1248 53.4907 15.0857 53.3845 15.0455C53.2766 15.0036 53.1688 14.9617 53.0577 14.9185C52.9489 14.877 52.8402 14.8356 52.7281 14.7929C52.4588 14.6902 52.1898 14.5866 51.9211 14.4822C51.9873 13.9616 52.0714 13.4688 52.2242 12.9669C52.2555 12.8624 52.2867 12.7579 52.3189 12.6503C52.4061 12.4006 52.4061 12.4006 52.5273 12.2781Z" fill="#FAFAFA"/>
<path d="M43.3099 12.0314C43.8085 12.0859 44.2678 12.2168 44.742 12.3758C44.8578 12.4145 44.9736 12.4532 45.0929 12.493C45.3709 12.6437 45.3709 12.6437 45.4564 12.8666C45.4967 13.1674 45.4601 13.348 45.3714 13.6367C45.3436 13.729 45.3159 13.8214 45.2873 13.9165C45.2574 14.0117 45.2274 14.1069 45.1966 14.2049C45.1672 14.302 45.1377 14.3991 45.1073 14.4991C45.0346 14.7381 44.9604 14.9767 44.886 15.2151C44.3057 15.1448 43.8509 14.9724 43.3251 14.7177C43.1854 14.6506 43.0456 14.5835 42.9017 14.5144C42.7964 14.4628 42.691 14.4112 42.5825 14.358C42.7864 13.5636 43.0105 12.7946 43.3099 12.0314Z" fill="#FAFAFA"/>
<path d="M52.2823 8.72551C52.644 8.84137 53.005 8.95926 53.3659 9.07755C53.4689 9.11054 53.572 9.14353 53.6782 9.17752C53.8253 9.22606 53.8253 9.22606 53.9753 9.27558C54.0661 9.30508 54.1569 9.33457 54.2504 9.36497C54.4645 9.46021 54.4645 9.46021 54.5858 9.70511C54.5018 10.0603 54.4095 10.4045 54.3054 10.7536C54.278 10.8507 54.2506 10.9479 54.2223 11.048C54.1493 11.2968 54.0652 11.5421 53.9796 11.7868C53.7371 11.9092 53.7371 11.9092 53.5093 11.8557C53.3741 11.8085 53.3741 11.8085 53.2361 11.7605C53.1384 11.7269 53.0408 11.6934 52.9401 11.6588C52.8381 11.6227 52.736 11.5867 52.6309 11.5495C52.4764 11.4961 52.4764 11.4961 52.3188 11.4417C52.0639 11.3534 51.8093 11.2643 51.5549 11.1745C51.9319 9.07948 51.9319 9.07948 52.2823 8.72551Z" fill="#FAFAFA"/>
<path d="M51.6726 5.41962C52.5127 5.66208 53.3529 5.90453 54.2185 6.15433C54.1221 6.64098 54.0047 7.07244 53.8472 7.53954C53.8033 7.6704 53.7594 7.80125 53.7141 7.93607C53.6805 8.03504 53.6469 8.13401 53.6123 8.23598C53.0116 8.43583 52.5713 8.25803 51.9984 8.05996C51.9086 8.0302 51.8188 8.00045 51.7263 7.96979C51.5059 7.89655 51.2861 7.82154 51.0664 7.74618C51.1645 6.91883 51.4018 6.20478 51.6726 5.41962Z" fill="#FAFAFA"/>
<path d="M55.6782 13.3801C56.0369 13.4997 56.3955 13.6197 56.7541 13.7398C56.8562 13.7738 56.9582 13.8078 57.0634 13.8429C57.161 13.8756 57.2587 13.9084 57.3594 13.9421C57.4495 13.9723 57.5397 14.0024 57.6325 14.0335C57.8604 14.1148 57.8604 14.1148 58.1029 14.2373C57.9696 15.0101 57.7899 15.7144 57.4967 16.4414C56.6655 16.2056 55.8682 15.9213 55.072 15.5842C55.2296 13.8332 55.2296 13.8332 55.6782 13.3801Z" fill="#FAFAFA"/>
<path d="M49.01 7.86613C49.6837 7.9512 50.1532 8.02242 50.7679 8.24114C50.8941 8.28549 51.0204 8.32985 51.1505 8.37555C51.2443 8.40948 51.338 8.44342 51.4346 8.47839C51.3594 9.28354 51.1741 10.0295 50.9497 10.8049C50.0686 10.5816 49.2415 10.3034 48.4038 9.94779C48.6038 9.26084 48.8039 8.5739 49.01 7.86613Z" fill="#FAFAFA"/>
<path d="M45.9814 6.76417C46.8588 6.92397 47.6867 7.20291 48.5273 7.49887C48.3453 8.2318 48.1706 8.92083 47.7999 9.58052C46.9564 9.41292 46.1771 9.15767 45.3752 8.84582C45.5957 7.15378 45.5957 7.15378 45.9814 6.76417Z" fill="#FAFAFA"/>
<path d="M58.1045 7.50018C58.8246 7.70223 59.5448 7.90427 60.2867 8.11243C60.1503 9.35224 60.1503 9.35224 59.9761 9.89562C59.9434 9.99932 59.9107 10.103 59.8771 10.2099C59.8522 10.2855 59.8274 10.3611 59.8018 10.439C59.2389 10.3873 58.7215 10.261 58.1803 10.0946C58.0543 10.0559 57.9284 10.0173 57.7986 9.97741C57.4983 9.82674 57.4983 9.82674 57.4098 9.60052C57.3551 9.15954 57.5635 8.7851 57.7332 8.38795C57.8558 8.09499 57.9783 7.80202 58.1045 7.50018Z" fill="#FAFAFA"/>
<path d="M45.9754 3.45827C46.4823 3.52473 46.9339 3.70607 47.4075 3.8945C47.6187 3.97808 47.6187 3.97808 47.8342 4.06335C47.9409 4.10613 48.0477 4.1489 48.1576 4.19298C48.0244 4.96579 47.8447 5.67014 47.5515 6.39708C47.0364 6.32064 46.5544 6.20588 46.0588 6.04504C45.9317 6.00494 45.8047 5.96485 45.6738 5.92354C45.5733 5.87777 45.4728 5.83199 45.3693 5.78483C45.2055 5.28865 45.3707 4.95622 45.536 4.4838C45.5644 4.39887 45.5928 4.31395 45.6221 4.22646C45.8355 3.59963 45.8355 3.59963 45.9754 3.45827Z" fill="#FAFAFA"/>
<path d="M49.4913 11.1721C50.3348 11.3397 51.1141 11.5949 51.9159 11.9068C51.8059 12.3699 51.6748 12.8265 51.5447 13.2843C51.5008 13.439 51.4568 13.5937 51.4116 13.7531C51.378 13.8711 51.3444 13.9892 51.3098 14.1109C50.6895 14.0484 50.2311 13.907 49.6807 13.6134C49.5533 13.5463 49.426 13.4792 49.2948 13.4101C49.1996 13.3585 49.1044 13.3069 49.0063 13.2537C49.0843 12.5297 49.2719 11.8648 49.4913 11.1721Z" fill="#FAFAFA"/>
<path d="M48.7667 4.56025C49.545 4.63013 50.2234 4.88761 50.9489 5.1725C50.8869 5.96069 50.7392 6.63694 50.4639 7.37661C49.7157 7.22473 49.001 7.02199 48.2817 6.76435C48.3437 5.97617 48.4914 5.29992 48.7667 4.56025Z" fill="#FAFAFA"/>
<path d="M46.5848 10.0701C46.9467 10.1825 47.3076 10.2982 47.6683 10.4145C47.7714 10.4464 47.8744 10.4784 47.9806 10.5113C48.1277 10.5593 48.1277 10.5593 48.2778 10.6082C48.3686 10.6371 48.4594 10.6659 48.5529 10.6956C48.767 10.8048 48.767 10.8048 48.8882 11.1721C48.8194 11.4724 48.7434 11.7587 48.6533 12.0522C48.6297 12.1324 48.606 12.2125 48.5816 12.295C48.5231 12.4924 48.4633 12.6895 48.4033 12.8864C47.809 12.8206 47.3213 12.6923 46.7742 12.4502C46.6468 12.3945 46.5195 12.3388 46.3883 12.2814C46.2931 12.2386 46.1979 12.1958 46.0999 12.1517C46.1496 11.5992 46.2284 11.1113 46.4081 10.5862C46.4577 10.4403 46.4577 10.4403 46.5082 10.2915C46.5334 10.2184 46.5587 10.1454 46.5848 10.0701Z" fill="#FAFAFA"/>
<path d="M52.7666 38.2361C52.7666 38.7417 52.5072 39.0158 52.221 39.407C52.1658 39.4836 52.1106 39.5602 52.0536 39.6392C51.5821 40.2889 51.0957 40.9239 50.5844 41.5423C50.5084 41.6384 50.4325 41.7345 50.3542 41.8336C49.7768 42.5296 49.1264 43.0868 48.4173 43.6392C48.3264 43.7104 48.2354 43.7816 48.1417 43.8549C48.0555 43.9204 47.9692 43.9859 47.8803 44.0535C47.8028 44.1124 47.7253 44.1713 47.6455 44.2319C47.4323 44.3586 47.4323 44.3586 47.0686 44.3586C47.1813 44.2462 47.294 44.1339 47.41 44.0181C47.5614 43.8663 47.7128 43.7145 47.8642 43.5627C47.938 43.4891 48.0119 43.4156 48.088 43.3398C48.4691 42.9569 48.8361 42.5685 49.1869 42.1569C49.6227 41.6469 50.0921 41.1784 50.5692 40.7081C51.3182 39.9621 52.0007 39.1991 52.6453 38.3586C52.6853 38.3182 52.7254 38.2777 52.7666 38.2361Z" fill="#FAFAFA"/>
<path d="M39.6759 48.7665C39.6759 49.284 39.3851 49.5218 39.0622 49.8916C39.0007 49.9634 38.9392 50.0352 38.8758 50.1092C38.6988 50.3155 38.5208 50.5208 38.3424 50.7257C38.2677 50.8122 38.193 50.8987 38.116 50.9879C37.988 51.1358 37.8595 51.2833 37.7305 51.4303C37.5294 51.6639 37.3321 51.8997 37.1357 52.1373C37.039 52.2534 37.039 52.2534 36.9403 52.3719C36.8114 52.5269 36.6832 52.6824 36.5556 52.8385C36.0008 53.503 36.0008 53.503 35.554 53.6646C35.474 53.5029 35.394 53.3413 35.3115 53.1748C36.7518 51.72 38.192 50.2653 39.6759 48.7665Z" fill="#FAFAFA"/>
<path d="M18.5808 40.0741C18.7008 40.1145 18.8209 40.1549 18.9445 40.1965C19.0354 40.4414 19.0354 40.4414 19.0657 40.8088C18.9557 41.0351 18.8443 41.2609 18.7248 41.4823C18.2677 42.4542 18.0476 43.5367 17.9746 44.6048C17.7946 44.6654 17.7946 44.6654 17.6109 44.7272C17.5191 43.0623 17.6557 41.51 18.5808 40.0741Z" fill="#FAFAFA"/>
<path d="M23.0621 52.9306C22.3337 53.7714 21.4744 54.2441 20.5162 54.7674C20.2198 54.9418 19.9234 55.1164 19.6278 55.2921C19.5609 55.321 19.494 55.3498 19.4251 55.3796C19.3451 55.3392 19.2651 55.2988 19.1826 55.2572C21.9708 52.5632 21.9708 52.5632 23.0621 52.9306Z" fill="#FAFAFA"/>
<path d="M68.0413 42.3983C68.2686 42.5361 68.2686 42.5361 68.405 42.7657C68.3898 43.2019 68.3898 43.2019 68.2837 43.6228C67.8919 43.8867 67.7683 43.9251 67.3139 43.8677C67.0941 43.7376 67.0941 43.7376 66.9502 43.5004C66.8971 43.0718 66.8971 43.0718 66.9502 42.6432C67.2919 42.2341 67.555 42.222 68.0413 42.3983Z" fill="#AAAAAA"/>
<path d="M59.376 58.4006C59.5861 58.4195 59.5861 58.4195 59.8004 58.4388C60.0792 58.8613 60.0951 59.0444 60.0428 59.5409C59.6243 59.8227 59.443 59.828 58.9517 59.7858C58.7093 59.5409 58.7093 59.5409 58.679 59.1123C58.7203 58.5276 58.7988 58.4526 59.376 58.4006Z" fill="#AAAAAA"/>
<path d="M13.0046 24.3669C13.3683 24.3975 13.3683 24.3975 13.6108 24.6424C13.6411 25.0098 13.6411 25.0098 13.6108 25.3771C13.3683 25.622 13.3683 25.622 13.0046 25.6527C12.6409 25.622 12.6409 25.622 12.3985 25.3771C12.3682 25.0098 12.3682 25.0098 12.3985 24.6424C12.6409 24.3975 12.6409 24.3975 13.0046 24.3669Z" fill="#AAAAAA"/>
<path d="M8.63459 47.9072C9.07406 47.9531 9.07406 47.9531 9.48322 48.0296C9.64466 48.6966 9.64466 48.6966 9.46807 48.9939C9.16865 49.1754 8.97815 49.1762 8.63459 49.1317C8.39212 48.8868 8.39212 48.8868 8.36182 48.5194C8.39212 48.1521 8.39212 48.1521 8.63459 47.9072Z" fill="#AAAAAA"/>
<path d="M54.3378 47.6399C54.709 47.6629 54.709 47.6629 54.9515 47.9078C54.9818 48.2751 54.9818 48.2751 54.9515 48.6425C54.709 48.8874 54.709 48.8874 54.4135 48.9256C54.1029 48.8874 54.1029 48.8874 53.8756 48.7496C53.7392 48.52 53.7392 48.52 53.7695 48.1373C53.8905 47.6687 53.8905 47.6687 54.3378 47.6399Z" fill="#AAAAAA"/>
<path d="M63.5568 65.9086C63.9205 65.8704 63.9205 65.8704 64.2842 65.9086C64.5267 66.1535 64.5267 66.1535 64.5721 66.452C64.5267 66.7658 64.5267 66.7658 64.3221 67.003C64.0418 67.1331 64.0418 67.1331 63.7159 67.0719C63.4356 66.8882 63.4356 66.8882 63.3219 66.5898C63.3144 66.276 63.3144 66.276 63.5568 65.9086Z" fill="#AAAAAA"/>
<path d="M71.2574 30.7279C71.4074 30.7469 71.4074 30.7469 71.5604 30.7662C71.8197 31.159 71.8608 31.2899 71.8029 31.7458C71.4392 31.9907 71.4392 31.9907 71.1285 31.9601C70.833 31.8682 70.833 31.8682 70.5906 31.6233C70.6405 31.1187 70.7102 30.797 71.2574 30.7279Z" fill="#AAAAAA"/>
<path d="M26.4629 13.339C26.5829 13.3516 26.7029 13.3643 26.8266 13.3773C27.0691 13.7446 27.0691 13.7446 27.0387 13.9972C26.9478 14.2344 26.9478 14.2344 26.7054 14.4793C26.4023 14.5099 26.4023 14.5099 26.0992 14.4793C25.8567 14.2344 25.8567 14.2344 25.8264 13.9283C25.8729 13.459 26.0082 13.3868 26.4629 13.339Z" fill="#AAAAAA"/>
<path d="M40.3994 18.1539C40.9517 18.222 40.9517 18.222 41.1268 18.3988C41.1495 18.6973 41.1495 18.6973 41.1268 19.0111C41.0468 19.0919 40.9668 19.1727 40.8843 19.256C40.3321 19.188 40.3321 19.188 40.1569 19.0111C40.1342 18.7126 40.1342 18.7126 40.1569 18.3988C40.237 18.318 40.317 18.2372 40.3994 18.1539Z" fill="#AAAAAA"/>
<path d="M21.731 34.4409C21.9874 34.6999 22.0812 34.8985 22.231 35.2292C22.5882 35.9689 23.0564 36.6051 23.5495 37.2573C23.6708 37.4205 23.792 37.5837 23.9132 37.7471C23.0768 37.3737 22.4347 36.6346 22.0634 35.7998C21.908 35.3562 21.8116 34.9037 21.731 34.4409Z" fill="#FAFAFA"/>
<path d="M19.5488 27.9483C20.0045 28.0342 20.2021 28.2021 20.4898 28.5754C20.8704 29.1588 21.2163 29.8042 21.1249 30.5198C20.7676 30.3394 20.7482 30.089 20.6096 29.7162C20.3413 29.0391 20.017 28.5009 19.5488 27.9483Z" fill="#FAFAFA"/>
<path d="M59.5564 40.1933C59.8747 40.2393 59.8747 40.2393 60.1626 40.3158C60.2384 40.6066 60.2384 40.6066 60.2838 40.928C60.2038 41.0089 60.1238 41.0897 60.0414 41.1729C59.7231 41.127 59.7231 41.127 59.4352 41.0505C59.3594 40.7597 59.3594 40.7597 59.314 40.4382C59.394 40.3574 59.474 40.2766 59.5564 40.1933Z" fill="#AAAAAA"/>
<path d="M64.7674 28.4377C65.0856 28.4836 65.0856 28.4836 65.3735 28.5601C65.3735 28.7621 65.3735 28.9642 65.3735 29.1724C65.1735 29.2128 64.9735 29.2532 64.7674 29.2948C64.6874 29.0928 64.6073 28.8907 64.5249 28.6826C64.6049 28.6017 64.6849 28.5209 64.7674 28.4377Z" fill="#AAAAAA"/>
<path d="M34.4691 11.0822C34.5466 11.1125 34.6241 11.1428 34.704 11.174C34.744 11.2952 34.784 11.4165 34.8252 11.5414C34.7052 11.7232 34.7052 11.7232 34.5827 11.9087C34.4227 11.8683 34.2627 11.8279 34.0978 11.7863C34.0578 11.5842 34.0178 11.3822 33.9766 11.174C34.219 11.0515 34.219 11.0515 34.4691 11.0822Z" fill="#AAAAAA"/>
<path d="M66.9487 57.459C67.2063 57.5738 67.2063 57.5738 67.4336 57.7039C67.3936 57.8655 67.3536 58.0271 67.3124 58.1937C67.085 58.2702 67.085 58.2702 66.8274 58.3161C66.7474 58.2353 66.6674 58.1545 66.585 58.0712C66.6153 57.8187 66.6153 57.8187 66.7062 57.5814C66.7862 57.541 66.8662 57.5006 66.9487 57.459Z" fill="#AAAAAA"/>
<path d="M61.3254 48.269C61.4717 48.2728 61.4717 48.2728 61.621 48.2767C61.6967 48.5063 61.6967 48.5063 61.7422 48.7665C61.6622 48.8473 61.5822 48.9281 61.4997 49.0114C61.2421 48.9654 61.2421 48.9654 61.0148 48.8889C60.9466 48.6517 60.9466 48.6517 60.8936 48.3991C61.0148 48.2767 61.0148 48.2767 61.3254 48.269Z" fill="#AAAAAA"/>
<path d="M8.75907 39.8274C9.00911 39.881 9.00911 39.881 9.244 39.9498C9.244 40.1519 9.244 40.3539 9.244 40.5621C9.01669 40.6386 9.01669 40.6386 8.75907 40.6845C8.67905 40.6037 8.59904 40.5229 8.5166 40.4396C8.58155 40.0067 8.58155 40.0067 8.75907 39.8274Z" fill="#AAAAAA"/>
<path d="M8.39369 30.8883C8.59373 30.9287 8.79376 30.9691 8.99986 31.0107C8.95985 31.2128 8.91985 31.4148 8.87863 31.623C8.67859 31.5826 8.47856 31.5422 8.27246 31.5005C8.31247 31.2985 8.35247 31.0964 8.39369 30.8883Z" fill="#AAAAAA"/>
<path d="M17.4879 18.5199C17.688 18.5603 17.888 18.6007 18.0941 18.6423C18.0541 18.8444 18.0141 19.0464 17.9729 19.2546C17.7728 19.2142 17.5728 19.1738 17.3667 19.1321C17.4067 18.9301 17.4467 18.7281 17.4879 18.5199Z" fill="#AAAAAA"/>
<path d="M55.0712 65.9087C55.3061 65.947 55.3061 65.947 55.5561 66.0312C55.5961 66.1524 55.6361 66.2736 55.6774 66.3985C55.6373 66.4794 55.5973 66.5602 55.5561 66.6434C55.3561 66.603 55.156 66.5626 54.95 66.521C54.99 66.3189 55.03 66.1169 55.0712 65.9087Z" fill="#AAAAAA"/>
<path d="M13.97 41.542C14.13 41.6228 14.2901 41.7037 14.4549 41.7869C14.4149 41.9486 14.3749 42.1102 14.3337 42.2767C14.1337 42.2363 13.9336 42.1959 13.7275 42.1543C13.8336 41.6798 13.8336 41.6798 13.97 41.542Z" fill="#AAAAAA"/>
<path d="M70.7118 51.8257C70.9118 51.8662 71.1119 51.9066 71.318 51.9482C71.278 52.1098 71.238 52.2715 71.1967 52.438C70.9967 52.3976 70.7967 52.3572 70.5906 52.3155C70.6306 52.1539 70.6706 51.9923 70.7118 51.8257Z" fill="#AAAAAA"/>
<path d="M73.4965 44.7246C73.7365 44.7852 73.7365 44.7852 73.9814 44.847C73.9814 45.0087 73.9814 45.1703 73.9814 45.3368C73.7814 45.2964 73.5813 45.256 73.3752 45.2144C73.4153 45.0528 73.4553 44.8911 73.4965 44.7246Z" fill="#AAAAAA"/>
<path d="M45.8546 22.6852C46.1047 22.7388 46.1047 22.7388 46.3396 22.8076C46.2996 22.9693 46.2596 23.1309 46.2183 23.2974C46.0583 23.257 45.8983 23.2166 45.7334 23.175C45.7334 22.8076 45.7334 22.8076 45.8546 22.6852Z" fill="#AAAAAA"/>
<path d="M64.1659 35.4195C64.406 35.4801 64.406 35.4801 64.6508 35.542C64.6108 35.7036 64.5708 35.8652 64.5296 36.0318C64.3696 35.9914 64.2096 35.951 64.0447 35.9093C64.0847 35.7477 64.1247 35.5861 64.1659 35.4195Z" fill="#AAAAAA"/>
<path d="M58.3452 71.7887C58.5452 71.7887 58.7453 71.7887 58.9514 71.7887C58.9114 71.9503 58.8714 72.1119 58.8301 72.2785C58.6701 72.2785 58.5101 72.2785 58.3452 72.2785C58.3452 72.1168 58.3452 71.9552 58.3452 71.7887Z" fill="#AAAAAA"/>
<path d="M119.919 48.8495H111.023L109.551 53.1055H104.847L112.879 30.7375H118.095L126.127 53.1055H121.391L119.919 48.8495ZM118.703 45.2655L115.471 35.9215L112.239 45.2655H118.703ZM135.913 53.3935C134.462 53.3935 133.161 53.1375 132.009 52.6255C130.857 52.0922 129.94 51.3775 129.257 50.4815C128.596 49.5855 128.233 48.5935 128.169 47.5055H132.681C132.766 48.1882 133.097 48.7535 133.673 49.2015C134.27 49.6495 135.006 49.8735 135.881 49.8735C136.734 49.8735 137.396 49.7029 137.865 49.3615C138.356 49.0202 138.601 48.5829 138.601 48.0495C138.601 47.4735 138.302 47.0469 137.705 46.7695C137.129 46.4709 136.201 46.1509 134.921 45.8095C133.598 45.4895 132.51 45.1589 131.657 44.8175C130.825 44.4762 130.1 43.9535 129.481 43.2495C128.884 42.5455 128.585 41.5962 128.585 40.4015C128.585 39.4202 128.862 38.5242 129.417 37.7135C129.993 36.9029 130.804 36.2629 131.849 35.7935C132.916 35.3242 134.164 35.0895 135.593 35.0895C137.705 35.0895 139.39 35.6229 140.649 36.6895C141.908 37.7349 142.601 39.1535 142.729 40.9455H138.441C138.377 40.2415 138.078 39.6869 137.545 39.2815C137.033 38.8549 136.34 38.6415 135.465 38.6415C134.654 38.6415 134.025 38.7909 133.577 39.0895C133.15 39.3882 132.937 39.8042 132.937 40.3375C132.937 40.9349 133.236 41.3935 133.833 41.7135C134.43 42.0122 135.358 42.3215 136.617 42.6415C137.897 42.9615 138.953 43.2922 139.785 43.6335C140.617 43.9749 141.332 44.5082 141.929 45.2335C142.548 45.9375 142.868 46.8762 142.889 48.0495C142.889 49.0735 142.601 49.9909 142.025 50.8015C141.47 51.6122 140.66 52.2522 139.593 52.7215C138.548 53.1695 137.321 53.3935 135.913 53.3935ZM151.783 39.0575V47.6335C151.783 48.2309 151.921 48.6682 152.199 48.9455C152.497 49.2015 152.988 49.3295 153.671 49.3295H155.751V53.1055H152.935C149.159 53.1055 147.271 51.2709 147.271 47.6015V39.0575H145.159V35.3775H147.271V30.9935H151.783V35.3775H155.751V39.0575H151.783ZM163.453 38.1295C164.029 37.1909 164.776 36.4549 165.693 35.9215C166.632 35.3882 167.698 35.1215 168.893 35.1215V39.8255H167.709C166.301 39.8255 165.234 40.1562 164.509 40.8175C163.805 41.4789 163.453 42.6309 163.453 44.2735V53.1055H158.973V35.3775H163.453V38.1295ZM179.782 53.3935C178.076 53.3935 176.54 53.0202 175.174 52.2735C173.809 51.5055 172.732 50.4282 171.942 49.0415C171.174 47.6549 170.79 46.0549 170.79 44.2415C170.79 42.4282 171.185 40.8282 171.974 39.4415C172.785 38.0549 173.884 36.9882 175.27 36.2415C176.657 35.4735 178.204 35.0895 179.91 35.0895C181.617 35.0895 183.164 35.4735 184.55 36.2415C185.937 36.9882 187.025 38.0549 187.814 39.4415C188.625 40.8282 189.03 42.4282 189.03 44.2415C189.03 46.0549 188.614 47.6549 187.782 49.0415C186.972 50.4282 185.862 51.5055 184.454 52.2735C183.068 53.0202 181.51 53.3935 179.782 53.3935ZM179.782 49.4895C180.593 49.4895 181.35 49.2975 182.054 48.9135C182.78 48.5082 183.356 47.9109 183.782 47.1215C184.209 46.3322 184.422 45.3722 184.422 44.2415C184.422 42.5562 183.974 41.2655 183.078 40.3695C182.204 39.4522 181.126 38.9935 179.846 38.9935C178.566 38.9935 177.489 39.4522 176.614 40.3695C175.761 41.2655 175.334 42.5562 175.334 44.2415C175.334 45.9269 175.75 47.2282 176.582 48.1455C177.436 49.0415 178.502 49.4895 179.782 49.4895ZM191.229 41.9055C191.229 39.7082 191.719 37.7455 192.701 36.0175C193.703 34.2682 195.058 32.9135 196.765 31.9535C198.493 30.9722 200.423 30.4815 202.557 30.4815C205.053 30.4815 207.239 31.1215 209.117 32.4015C210.994 33.6815 212.306 35.4522 213.053 37.7135H207.901C207.389 36.6469 206.663 35.8469 205.725 35.3135C204.807 34.7802 203.741 34.5135 202.525 34.5135C201.223 34.5135 200.061 34.8229 199.037 35.4415C198.034 36.0389 197.245 36.8922 196.669 38.0015C196.114 39.1109 195.837 40.4122 195.837 41.9055C195.837 43.3775 196.114 44.6789 196.669 45.8095C197.245 46.9189 198.034 47.7829 199.037 48.4015C200.061 48.9989 201.223 49.2975 202.525 49.2975C203.741 49.2975 204.807 49.0309 205.725 48.4975C206.663 47.9429 207.389 47.1322 207.901 46.0655H213.053C212.306 48.3482 210.994 50.1295 209.117 51.4095C207.261 52.6682 205.074 53.2975 202.557 53.2975C200.423 53.2975 198.493 52.8175 196.765 51.8575C195.058 50.8762 193.703 49.5215 192.701 47.7935C191.719 46.0655 191.229 44.1029 191.229 41.9055ZM224.751 53.3935C223.044 53.3935 221.508 53.0202 220.143 52.2735C218.778 51.5055 217.7 50.4282 216.911 49.0415C216.143 47.6549 215.759 46.0549 215.759 44.2415C215.759 42.4282 216.154 40.8282 216.943 39.4415C217.754 38.0549 218.852 36.9882 220.239 36.2415C221.626 35.4735 223.172 35.0895 224.879 35.0895C226.586 35.0895 228.132 35.4735 229.519 36.2415C230.906 36.9882 231.994 38.0549 232.783 39.4415C233.594 40.8282 233.999 42.4282 233.999 44.2415C233.999 46.0549 233.583 47.6549 232.751 49.0415C231.94 50.4282 230.831 51.5055 229.423 52.2735C228.036 53.0202 226.479 53.3935 224.751 53.3935ZM224.751 49.4895C225.562 49.4895 226.319 49.2975 227.023 48.9135C227.748 48.5082 228.324 47.9109 228.751 47.1215C229.178 46.3322 229.391 45.3722 229.391 44.2415C229.391 42.5562 228.943 41.2655 228.047 40.3695C227.172 39.4522 226.095 38.9935 224.815 38.9935C223.535 38.9935 222.458 39.4522 221.583 40.3695C220.73 41.2655 220.303 42.5562 220.303 44.2415C220.303 45.9269 220.719 47.2282 221.551 48.1455C222.404 49.0415 223.471 49.4895 224.751 49.4895ZM236.133 44.1775C236.133 42.3855 236.485 40.7962 237.189 39.4095C237.915 38.0229 238.896 36.9562 240.133 36.2095C241.371 35.4629 242.747 35.0895 244.261 35.0895C245.413 35.0895 246.512 35.3455 247.557 35.8575C248.603 36.3482 249.435 37.0095 250.053 37.8415V29.4255H254.597V53.1055H250.053V50.4815C249.499 51.3562 248.72 52.0602 247.717 52.5935C246.715 53.1269 245.552 53.3935 244.229 53.3935C242.736 53.3935 241.371 53.0095 240.133 52.2415C238.896 51.4735 237.915 50.3962 237.189 49.0095C236.485 47.6015 236.133 45.9909 236.133 44.1775ZM250.085 44.2415C250.085 43.1535 249.872 42.2255 249.445 41.4575C249.019 40.6682 248.443 40.0709 247.717 39.6655C246.992 39.2389 246.213 39.0255 245.381 39.0255C244.549 39.0255 243.781 39.2282 243.077 39.6335C242.373 40.0389 241.797 40.6362 241.349 41.4255C240.923 42.1935 240.709 43.1109 240.709 44.1775C240.709 45.2442 240.923 46.1829 241.349 46.9935C241.797 47.7829 242.373 48.3909 243.077 48.8175C243.803 49.2442 244.571 49.4575 245.381 49.4575C246.213 49.4575 246.992 49.2549 247.717 48.8495C248.443 48.4229 249.019 47.8255 249.445 47.0575C249.872 46.2682 250.085 45.3295 250.085 44.2415ZM275.453 43.8575C275.453 44.4975 275.41 45.0735 275.325 45.5855H262.365C262.472 46.8655 262.92 47.8682 263.709 48.5935C264.498 49.3189 265.469 49.6815 266.621 49.6815C268.285 49.6815 269.469 48.9669 270.173 47.5375H275.005C274.493 49.2442 273.512 50.6522 272.061 51.7615C270.61 52.8495 268.829 53.3935 266.717 53.3935C265.01 53.3935 263.474 53.0202 262.109 52.2735C260.765 51.5055 259.709 50.4282 258.941 49.0415C258.194 47.6549 257.821 46.0549 257.821 44.2415C257.821 42.4069 258.194 40.7962 258.941 39.4095C259.688 38.0229 260.733 36.9562 262.077 36.2095C263.421 35.4629 264.968 35.0895 266.717 35.0895C268.402 35.0895 269.906 35.4522 271.229 36.1775C272.573 36.9029 273.608 37.9375 274.333 39.2815C275.08 40.6042 275.453 42.1295 275.453 43.8575ZM270.813 42.5775C270.792 41.4255 270.376 40.5082 269.565 39.8255C268.754 39.1215 267.762 38.7695 266.589 38.7695C265.48 38.7695 264.541 39.1109 263.773 39.7935C263.026 40.4549 262.568 41.3829 262.397 42.5775H270.813ZM282.819 49.4255H290.723V53.1055H277.731V49.4895L285.475 39.0575H277.763V35.3775H290.627V38.9935L282.819 49.4255Z" fill="#FAFAFA"/>
</svg>
